<svg id="Layer_2" viewBox="0 0 32 32" xmlns="http://www.w3.org/2000/svg"><rect fill="#97d8e8" height="20" rx="2" width="26" x="3" y="6" style="fill: rgb(255, 217, 163);"></rect><path d="m27 5h-22c-1.654 0-3 1.346-3 3v16c0 1.654 1.346 3 3 3h22c1.654 0 3-1.346 3-3v-16c0-1.654-1.346-3-3-3zm-23 3.336 5.645 5.003-5.645 9.677zm1.507-1.336h20.986l-10.023 8.883c-.292.154-.648.154-.94 0zm5.664 7.692 3.106 2.753.133.1c.483.302 1.036.453 1.59.453s1.107-.151 1.59-.453l3.234-2.861 6.018 10.317h-21.684l6.013-10.308zm11.18-1.36 5.649-4.997v14.681z" fill="#1790a7" style="fill: rgb(94, 132, 165);"></path></svg>