<svg version="1.1" id="Layer_1" xmlns="http://www.w3.org/2000/svg" xmlns:xlink="http://www.w3.org/1999/xlink" x="0px" y="0px" viewBox="0 0 512 512" style="enable-background:new 0 0 512 512;" xml:space="preserve"><g><polygon style="fill: rgb(255, 217, 163);" points="0,485 233.392,485 97.248,348.856 " fill="#32BEA6"></polygon><polygon style="fill: rgb(255, 217, 163);" points="278.608,485 512,485 415.936,347.688 " fill="#32BEA6"></polygon><path style="fill: rgb(255, 217, 163);" d="M395.984,345h-91.552c-15.696,23.04-28.384,39.952-32.064,44.848L256,411.336l-16.272-21.488 C236,384.984,223.28,368.072,207.552,345h-91.536L256,484.984L395.984,345z" fill="#32BEA6"></path></g><path style="fill: rgb(94, 132, 165);" d="M256,411.336l16.368-21.488c3.696-4.896,16.368-21.808,32.064-44.848 c34.816-51.088,84.592-132.416,84.592-180.368C389.024,81.032,336.832,27,256,27S122.976,81.032,122.976,164.632 c0,48,49.712,129.312,84.576,180.368c15.744,23.056,28.464,39.968,32.176,44.848L256,411.336z M255.904,122.472 c23.792,0,43.072,19.28,43.072,43.072s-19.28,43.072-43.072,43.072s-43.072-19.28-43.072-43.072 C212.816,141.752,232.112,122.472,255.904,122.472z" fill="#E04F5F"></path><g><circle style="fill: rgb(255, 217, 163);" cx="255.904" cy="165.544" r="43.072" fill="#FFFFFF"></circle></g></svg>