<svg id="Layer_1" viewBox="0 0 512 512" xmlns="http://www.w3.org/2000/svg" data-name="Layer 1"><g fill-rule="evenodd"><path d="m32.371 205.113c-8.213-19.721-14.707-40.863-17.232-62.12-3.217-27.074.149-54.442 15.833-77.4a88.139 88.139 0 0 1 8.569-10.222c3.762-4 7.688-7.871 11.641-11.685 3.223-3.11 6.478-6.186 9.734-9.26 3.857-3.643 7.735-7.29 11.488-11.04a32.2 32.2 0 0 1 45.427 0l77.092 77.068a32.161 32.161 0 0 1 0 45.42l-21 20.958a43.869 43.869 0 0 0 -7.754 51.887 306.043 306.043 0 0 0 127.162 127.142 43.88 43.88 0 0 0 51.87-7.77l20.948-20.957a32.2 32.2 0 0 1 45.428 0l77.092 77.078a32.17 32.17 0 0 1 0 45.409c-3.756 3.76-7.419 7.632-11.067 11.5-3.072 3.254-6.145 6.506-9.253 9.725-3.814 3.953-7.683 7.877-11.687 11.638a88.316 88.316 0 0 1 -10.223 8.567 95.7 95.7 0 0 1 -36.429 14.882c-34.077 6.484-71.683-3.2-103.062-16.276-28.524-11.885-55.786-27.972-81-45.76a615.921 615.921 0 0 1 -80.011-67.765 615.4 615.4 0 0 1 -67.807-80.022c-17.791-25.217-33.88-52.476-45.759-80.997z" fill="#28c5fc" style="fill: rgb(255, 217, 163);"></path><path d="m487.255 438.206c-3.187 3.178-7.029 7.241-11.107 11.538-10.169 10.793-22.869 24.21-30.836 29.651-41.9 28.63-97.947 14.931-137.594-1.588-52.3-21.792-109.241-61.96-160.37-113.093-51.176-51.139-91.339-108.1-113.131-160.37-16.5-39.657-30.227-95.721-1.593-137.627 5.436-7.972 18.886-20.653 29.665-30.842 4.312-4.063 8.342-7.9 11.529-11.078a30.2 30.2 0 0 1 42.6 0l77.092 77.068a30.2 30.2 0 0 1 0 42.591l-20.995 20.957a45.874 45.874 0 0 0 -8.107 54.241 307.954 307.954 0 0 0 127.985 127.973 45.848 45.848 0 0 0 54.222-8.122l20.949-20.958a30.2 30.2 0 0 1 42.6 0l77.092 77.078a30.186 30.186 0 0 1 0 42.581zm24.7-18.389v-5.8a45.9 45.9 0 0 0 -13.4-29.706l-77.092-77.074a46.151 46.151 0 0 0 -65.189 0l-20.953 20.963a29.606 29.606 0 0 1 -35.429 5.3 291.893 291.893 0 0 1 -121.333-121.353 29.568 29.568 0 0 1 5.3-35.425l20.941-20.958a46.135 46.135 0 0 0 0-65.212l-77.088-77.078a46.176 46.176 0 0 0 -65.189 0c-3.046 3.023-7.029 6.791-11.2 10.77-11.951 11.271-25.495 24.056-31.915 33.456-25.822 37.848-25.822 90.693.047 152.8 22.588 54.156 63.97 112.948 116.552 165.53s111.35 93.967 165.525 116.537c31.071 12.963 59.846 19.43 85.527 19.43s48.364-6.458 67.3-19.387c9.372-6.411 22.166-19.941 33.414-31.873 3.983-4.208 7.779-8.187 10.779-11.21a45.9 45.9 0 0 0 13.401-29.71z" fill="#3a6376" style="fill: rgb(94, 132, 165);"></path></g></svg>