<svg id="Layer_1" enable-background="new 0 0 70 70" viewBox="0 0 70 70" xmlns="http://www.w3.org/2000/svg"><g><g><g><path d="m67.001 35.004c0 17.667-14.326 31.993-31.993 31.993-17.681 0-32.007-14.326-32.007-31.993 0-17.681 14.326-32.007 32.007-32.007 17.667 0 31.993 14.326 31.993 32.007z" fill="#2297f3" style="fill: rgb(94, 132, 165);"></path></g></g><g><g><path d="m42.759 66.052c-2.48.62-5.08.95-7.75.95-17.68 0-32.01-14.33-32.01-32 0-17.68 14.33-32 32.01-32 2.67 0 5.27.33 7.75.95-13.94 3.46-24.26 16.04-24.26 31.05 0 15 10.32 27.59 24.26 31.05z" fill="#0e88db" style="fill: rgb(94, 132, 165);"></path></g></g><g><g><path d="m60.794 35.003c0 14.24-11.547 25.787-25.787 25.787-14.251 0-25.798-11.547-25.798-25.787 0-14.251 11.547-25.798 25.798-25.798 14.24 0 25.787 11.547 25.787 25.798z" fill="#d9defb" style="fill: rgb(255, 217, 163);"></path></g></g><g><g><path d="m60.794 35.003c0 .354-.011.719-.021 1.073-.161 3.918-1.192 7.6-2.92 10.874-.322.644-.687 1.267-1.073 1.868-2.029 3.199-4.755 5.925-7.965 7.954-.601.397-1.224.751-1.857 1.073-3.274 1.728-6.967 2.759-10.885 2.92-.354.011-.708.021-1.063.021-.365 0-.719-.011-1.084-.021-3.918-.161-7.611-1.202-10.885-2.92-.644-.333-1.256-.687-1.857-1.073-3.21-2.029-5.936-4.755-7.965-7.954-.386-.601-.751-1.224-1.073-1.868-1.728-3.274-2.759-6.956-2.92-10.874-.011-.354-.021-.719-.021-1.073s.011-.719.021-1.073c.161-3.918 1.192-7.611 2.92-10.885.322-.644.687-1.267 1.073-1.868 2.04-3.199 4.755-5.925 7.965-7.954.601-.386 1.213-.741 1.857-1.073 3.274-1.717 6.967-2.759 10.885-2.92.365-.011.719-.021 1.084-.021.354 0 .709.011 1.063.021 3.918.161 7.611 1.192 10.885 2.92.633.322 1.256.676 1.857 1.073 3.199 2.029 5.925 4.745 7.965 7.954.386.601.751 1.224 1.073 1.868 1.728 3.274 2.759 6.967 2.92 10.885.01.354.021.719.021 1.073z" fill="#d9defb" style="fill: rgb(255, 217, 163);"></path></g></g><g><g><path d="m42.116 59.789c-2.254.655-4.637.998-7.106.998-14.255 0-25.806-11.54-25.806-25.784 0-14.255 11.55-25.795 25.806-25.795 2.469 0 4.852.344 7.106.998-10.799 3.07-18.689 13.01-18.689 24.797 0 11.776 7.89 21.716 18.689 24.786z" fill="#c5cced" style="fill: rgb(255, 217, 163);"></path></g></g><g><g><path d="m36.072 9.229v2.555c0 .59-.483 1.073-1.073 1.073s-1.073-.483-1.073-1.073v-2.555c.365-.011.719-.021 1.084-.021.354 0 .708.011 1.062.021z" fill="#445a66" style="fill: rgb(94, 132, 165);"></path></g><g><path d="m23.932 15.82c-.172.097-.354.15-.537.15-.365 0-.73-.193-.934-.537l-1.277-2.211c.601-.386 1.213-.741 1.857-1.073l1.288 2.211c.29.516.118 1.171-.397 1.46z" fill="#445a66" style="fill: rgb(94, 132, 165);"></path></g><g><path d="m15.827 23.925c-.193.344-.558.537-.934.537-.182 0-.365-.043-.537-.14l-2.211-1.277c.322-.644.687-1.267 1.073-1.868l2.211 1.288c.516.29.699.945.398 1.46z" fill="#445a66" style="fill: rgb(94, 132, 165);"></path></g><g><path d="m12.864 35.003c0 .59-.483 1.073-1.073 1.073h-2.566c-.011-.354-.021-.719-.021-1.073s.011-.719.021-1.073h2.566c.59-.001 1.073.472 1.073 1.073z" fill="#445a66" style="fill: rgb(94, 132, 165);"></path></g><g><path d="m15.43 47.53-2.211 1.288c-.386-.601-.751-1.224-1.073-1.868l2.211-1.277c.515-.301 1.17-.118 1.471.397.3.515.117 1.17-.398 1.46z" fill="#445a66" style="fill: rgb(94, 132, 165);"></path></g><g><path d="m24.329 55.635-1.288 2.211c-.644-.333-1.256-.687-1.857-1.073l1.277-2.211c.301-.515.955-.687 1.471-.386.515.288.687.943.397 1.459z" fill="#445a66" style="fill: rgb(94, 132, 165);"></path></g><g><path d="m36.072 58.211v2.555c-.354.011-.708.021-1.063.021-.365 0-.719-.011-1.084-.021v-2.555c0-.59.483-1.073 1.073-1.073s1.074.482 1.074 1.073z" fill="#445a66" style="fill: rgb(94, 132, 165);"></path></g><g><path d="m48.814 56.772c-.601.397-1.224.751-1.857 1.073l-1.277-2.211c-.301-.515-.118-1.17.386-1.46.515-.301 1.17-.129 1.471.386z" fill="#445a66" style="fill: rgb(94, 132, 165);"></path></g><g><path d="m57.853 46.95c-.322.644-.687 1.267-1.073 1.868l-2.211-1.288c-.515-.29-.687-.945-.397-1.46.301-.515.955-.698 1.471-.397z" fill="#445a66" style="fill: rgb(94, 132, 165);"></path></g><g><path d="m60.794 35.003c0 .354-.011.719-.021 1.073h-2.555c-.601 0-1.073-.483-1.073-1.073 0-.601.472-1.073 1.073-1.073h2.555c.01.354.021.719.021 1.073z" fill="#445a66" style="fill: rgb(94, 132, 165);"></path></g><g><path d="m57.853 23.045-2.211 1.277c-.172.097-.354.14-.537.14-.376 0-.73-.193-.934-.537-.29-.515-.118-1.17.397-1.46l2.211-1.288c.387.601.751 1.224 1.074 1.868z" fill="#445a66" style="fill: rgb(94, 132, 165);"></path></g><g><path d="m48.814 13.223-1.277 2.211c-.193.343-.558.537-.934.537-.182 0-.365-.054-.537-.15-.504-.29-.687-.945-.386-1.46l1.277-2.211c.633.321 1.256.675 1.857 1.073z" fill="#445a66" style="fill: rgb(94, 132, 165);"></path></g><g><path d="m48.477 36.071h-13.478c-.593 0-1.073-.48-1.073-1.073v-15.992c0-.593.481-1.073 1.073-1.073s1.073.48 1.073 1.073v14.918h12.405c.593 0 1.073.48 1.073 1.073.001.594-.48 1.074-1.073 1.074z" fill="#445a66" style="fill: rgb(94, 132, 165);"></path></g><g><path d="m23.395 44.728c-.317 0-.631-.139-.843-.408-.367-.465-.288-1.141.177-1.508l10.249-8.095c.464-.366 1.139-.288 1.507.177.367.465.288 1.141-.177 1.508l-10.248 8.095c-.197.155-.431.231-.665.231z" fill="#445a66" style="fill: rgb(94, 132, 165);"></path></g></g><g><g><path d="m38.27 34.993c0 1.81-1.46 3.279-3.271 3.279-1.801 0-3.271-1.469-3.271-3.279 0-1.801 1.469-3.271 3.271-3.271 1.81 0 3.271 1.47 3.271 3.271z" fill="#3b515b" style="fill: rgb(94, 132, 165);"></path></g></g></g></svg>